<?xml version="1.0" standalone="no"?><!DOCTYPE svg PUBLIC "-//W3C//DTD SVG 1.1//EN" "http://www.w3.org/Graphics/SVG/1.1/DTD/svg11.dtd"><svg t="1739847747198" class="icon" viewBox="0 0 1024 1024" version="1.1" xmlns="http://www.w3.org/2000/svg" p-id="969" xmlns:xlink="http://www.w3.org/1999/xlink" width="200" height="200"><path d="M867.27 824H142.54V214h724.73v610z m-679.73-45h634.73V259H187.54v520z" p-id="970"></path><path d="M288.63 722.78l-32.02-31.61 186.68-189.09 124.59 124.59 62.95-60.95L753.2 688.09l-31.82 31.82-91.06-91.06-62.95 60.95-123.88-123.88-154.86 156.86z" p-id="971"></path><path d="M631.5 491c-45.49 0-82.5-37.01-82.5-82.5s37.01-82.5 82.5-82.5 82.5 37.01 82.5 82.5-37.01 82.5-82.5 82.5z m0-120c-20.68 0-37.5 16.82-37.5 37.5s16.82 37.5 37.5 37.5 37.5-16.82 37.5-37.5-16.82-37.5-37.5-37.5z" fill="#FFCA22" p-id="972"></path></svg>